<svg width="75" height="41" viewBox="0 0 75 41" fill="none" xmlns="http://www.w3.org/2000/svg">
<path d="M52.6916 25.9787C51.6752 26.2116 48.9999 26.3458 48.9999 26.3458L48.6611 27.4046C48.6611 27.4046 49.9952 27.2916 50.9693 27.3905C50.9693 27.3905 51.2869 27.3552 51.3222 27.7505C51.3364 28.1175 51.294 28.5128 51.294 28.5128C51.294 28.5128 51.2728 28.7528 50.934 28.8093C50.5669 28.8728 48.054 28.9646 48.054 28.9646L47.6446 30.3411C47.6446 30.3411 47.4963 30.6587 47.8352 30.5669C48.1528 30.4822 50.7858 29.9881 51.1316 30.0587C51.4987 30.1505 51.9081 30.6375 51.7881 31.0893C51.6469 31.6399 49.0211 33.3199 47.4187 33.1999C47.4187 33.1999 46.5787 33.2563 45.8658 32.1199C45.2022 31.0399 46.1199 28.9858 46.1199 28.9858C46.1199 28.9858 45.7034 28.0258 46.0069 27.7081C46.0069 27.7081 46.1905 27.5458 46.7128 27.5034L47.3552 26.1693C47.3552 26.1693 46.6211 26.2187 46.1834 25.6822C45.774 25.1669 45.7458 24.934 46.0564 24.7928C46.3881 24.6305 49.4446 24.0728 51.5481 24.1434C51.5481 24.1434 52.2822 24.0728 52.9105 25.3434C52.9034 25.3434 53.214 25.8587 52.6916 25.9787ZM44.7787 31.1034C44.5105 31.7387 43.7975 32.4164 42.9152 31.9928C42.0399 31.5693 40.6493 28.7246 40.6493 28.7246C40.6493 28.7246 40.1199 27.6658 40.0211 27.6869C40.0211 27.6869 39.9081 27.4822 39.8375 28.6399C39.7669 29.7975 39.8516 32.0493 39.3928 32.4022C38.9552 32.7552 38.4258 32.614 38.1505 32.1975C37.9034 31.7881 37.7975 30.814 37.9316 29.1058C38.094 27.3975 38.4893 25.5764 38.9975 25.0046C39.5058 24.4399 39.9152 24.8493 40.0705 24.9975C40.0705 24.9975 40.7481 25.6116 41.8705 27.4187L42.0681 27.7505C42.0681 27.7505 43.0846 29.4587 43.1905 29.4516C43.1905 29.4516 43.2752 29.5293 43.3458 29.4728C43.4516 29.4446 43.4093 28.894 43.4093 28.894C43.4093 28.894 43.1975 27.0375 42.2728 23.8893C42.2728 23.8893 42.1316 23.494 42.2305 23.1269C42.3222 22.7528 42.6963 22.9293 42.6963 22.9293C42.6963 22.9293 44.1364 23.6493 44.8281 25.9928C45.5128 28.3575 45.0469 30.4681 44.7787 31.1034ZM37.7058 25.0822C37.5858 25.3222 37.5152 25.6681 36.9081 25.7599C36.9081 25.7599 31.0987 26.1552 30.8234 26.5646C30.8234 26.5646 30.6187 26.8046 30.9363 26.8752C31.254 26.9387 32.5669 27.1152 33.2022 27.1505C33.8799 27.1575 36.1669 27.1787 36.9858 28.2022C36.9858 28.2022 37.4728 28.6893 37.4516 29.7905C37.4305 30.9199 37.2328 31.3152 36.7952 31.7246C36.3363 32.1058 32.3975 33.8705 29.8563 31.1599C29.8563 31.1599 28.6846 29.854 30.2587 28.8658C30.2587 28.8658 31.3952 28.1811 34.2822 28.9858C34.2822 28.9858 35.1575 29.3034 35.1152 29.6211C35.0658 29.9599 34.3952 30.3199 33.4211 30.2987C32.4752 30.2705 31.7834 29.8187 31.9175 29.8893C32.0446 29.9387 30.9011 29.3387 30.5481 29.7481C30.1952 30.1222 30.2799 30.3552 30.6258 30.5881C31.5081 31.0893 34.9175 30.9128 35.934 29.7834C35.934 29.7834 36.3364 29.3246 35.7222 28.9505C35.1081 28.5975 33.3505 28.3858 32.6658 28.3505C32.0093 28.3152 29.5669 28.3575 29.214 27.7081C29.214 27.7081 28.8611 27.2705 29.2493 26.0281C29.6587 24.7293 32.5034 24.2281 33.7316 24.1152C33.7316 24.1152 37.1128 23.9952 37.734 24.6869C37.7269 24.6869 37.8116 24.8493 37.7058 25.0822ZM28.1058 32.6987C27.6964 33.0022 26.8281 32.8681 26.5811 32.5293C26.334 32.2258 26.2493 31.0187 26.2987 29.1269C26.3481 27.214 26.3905 24.8422 26.7999 24.4681C27.2375 24.0869 27.5058 24.4187 27.6752 24.6799C27.8587 24.934 28.0775 25.2164 28.1269 25.8164C28.1693 26.4164 28.3105 29.5646 28.3105 29.5646C28.3105 29.5646 28.494 32.4022 28.1058 32.6987ZM28.9881 22.5481C27.7952 22.9434 26.9764 22.8093 26.2846 22.5128C25.9811 23.0422 25.8046 23.2046 25.5716 23.2399C25.2328 23.2752 24.9293 22.7316 24.8728 22.5552C24.8164 22.4211 24.654 22.1952 24.8516 21.6587C24.174 21.0516 24.1246 20.2328 24.2375 19.6822C24.4069 19.0469 25.5505 16.6328 29.0305 16.3505C29.0305 16.3505 30.7316 16.2234 31.0211 17.134H31.0705C31.0705 17.134 32.7222 17.1411 32.6869 18.6093C32.6658 20.0846 30.8516 21.9199 28.9881 22.5481ZM25.7411 19.2799C25.3881 19.8446 25.374 20.1834 25.5364 20.4164C25.9387 19.8022 26.6728 18.8352 27.7528 18.1011C26.9199 18.1716 26.2211 18.5316 25.7411 19.2799ZM30.5481 18.334C29.454 18.4964 27.7599 19.9646 26.9552 21.1646C28.1905 21.3905 30.3716 21.3058 31.3387 19.3363C31.3316 19.3363 31.7975 18.1152 30.5481 18.334ZM60.2516 29.7058C59.5952 30.8493 57.7528 33.2352 55.2963 32.6775C54.4846 34.6469 53.8069 36.6305 53.4187 39.6093C53.4187 39.6093 53.334 40.1881 52.854 39.9834C52.3811 39.814 51.5905 39.0234 51.4352 37.9293C51.2658 36.4893 51.9081 34.054 53.214 31.2658C52.8328 30.6446 52.5716 29.7552 52.7975 28.4916C52.7975 28.4916 53.1293 26.1481 55.4799 24.0305C55.4799 24.0305 55.7622 23.7834 55.9246 23.8611C56.1081 23.9387 56.0234 24.7011 55.8752 25.0681C55.7269 25.4352 54.6752 27.2563 54.6752 27.2563C54.6752 27.2563 54.0187 28.4846 54.2022 29.4516C55.4375 27.5528 58.2469 23.7199 59.9905 24.9269C60.5763 25.3434 60.8446 26.254 60.8446 27.2352C60.8375 28.1034 60.6328 29.0211 60.2516 29.7058ZM59.7434 26.6987C59.7434 26.6987 59.6446 25.9434 58.9105 26.7764C58.2752 27.4752 57.1316 28.7952 56.2069 30.5811C57.174 30.4752 58.1058 29.9458 58.3881 29.6775C58.8469 29.2681 59.9128 28.1669 59.7434 26.6987ZM25.4728 27.6587C25.3387 29.3669 24.6822 32.2399 20.0305 33.6587C16.9599 34.5834 14.0587 34.1387 12.4775 33.7363C12.4422 34.3646 12.3716 34.6328 12.2728 34.7387C12.1387 34.8728 11.1364 35.4516 10.5858 34.6328C10.3387 34.2446 10.2116 33.5387 10.1411 32.9105C6.58341 31.2728 4.94577 28.9152 4.88224 28.8093C4.80459 28.7316 3.99282 27.8846 4.80459 26.8469C5.56694 25.9081 8.05871 24.9693 10.3034 24.5881C10.3811 22.6681 10.6069 21.2211 10.8752 20.5575C11.1999 19.7881 11.6093 20.4799 11.9622 21.0022C12.2587 21.3905 12.4352 23.0634 12.4493 24.3975C13.9175 24.3269 14.7858 24.4328 16.4234 24.7293C18.5552 25.1175 19.9811 26.2046 19.854 27.4399C19.7622 28.654 18.6469 29.1552 18.2234 29.1905C17.7787 29.2258 17.0869 28.9081 17.0869 28.9081C16.614 28.6822 17.0516 28.4846 17.6234 28.2375C18.2446 27.934 18.1034 27.6234 18.1034 27.6234C17.8705 26.9458 15.1034 26.4728 12.3505 26.4728C12.3364 27.9905 12.414 30.5105 12.4493 31.9787C14.3764 32.3458 15.8164 32.2752 15.8164 32.2752C15.8164 32.2752 22.8469 32.0775 23.0587 27.5881C23.2775 23.0916 16.0493 18.7787 10.7058 17.4093C5.3693 16.0116 2.34812 16.9858 2.08694 17.1199C1.80459 17.2611 2.06577 17.3034 2.06577 17.3034C2.06577 17.3034 2.35518 17.3458 2.85635 17.5152C3.38576 17.6846 2.97635 17.9599 2.97635 17.9599C2.06577 18.2493 1.04224 18.0658 0.844588 17.6493C0.646941 17.2328 0.978707 16.8587 1.35988 16.3222C1.74106 15.7575 2.15753 15.7787 2.15753 15.7787C8.75753 13.4916 16.7975 17.6281 16.7975 17.6281C24.3293 21.4469 25.614 25.9222 25.4728 27.6587ZM5.55282 27.4258C4.80459 27.7928 5.31988 28.3222 5.31988 28.3222C6.72459 29.8328 8.454 30.7787 10.0987 31.3646C10.2893 28.7599 10.2611 27.8422 10.2822 26.5293C7.71282 26.7058 6.23047 27.1152 5.55282 27.4258Z" fill="white"/>
<path d="M74.2282 26.889V27.8208C74.2282 28.0255 74.0658 28.1878 73.8611 28.1878H69.4211C69.4211 28.4208 69.4282 28.6255 69.4282 28.8161C69.4282 30.1926 69.3717 31.3149 69.2376 32.5784C69.2164 32.769 69.0611 32.9102 68.8776 32.9102H67.9176C67.8188 32.9102 67.727 32.8678 67.6635 32.7973C67.6 32.7267 67.5647 32.6278 67.5788 32.529C67.7129 31.2725 67.7764 30.1643 67.7764 28.8161C67.7764 28.6184 67.7764 28.4137 67.7694 28.1878H63.3788C63.1741 28.1878 63.0117 28.0255 63.0117 27.8208V26.889C63.0117 26.6843 63.1741 26.522 63.3788 26.522H67.7058C67.6141 25.0043 67.4305 23.5431 67.1341 22.0608C67.12 21.969 67.1411 21.8773 67.1976 21.8067C67.2541 21.7361 67.3388 21.6937 67.4305 21.6937H68.4682C68.6305 21.6937 68.7647 21.8067 68.8 21.969C69.0894 23.5008 69.2729 24.9902 69.3647 26.522H73.8611C74.0588 26.522 74.2282 26.6914 74.2282 26.889Z" fill="white"/>
<path d="M68.1855 19.4985C65.8914 13.8585 62.0161 9.05143 56.9761 5.59261C51.8161 2.05614 45.7667 0.185547 39.4843 0.185547C29.0938 0.185547 19.4514 5.34555 13.6985 13.9926C13.6349 14.0844 13.6208 14.2044 13.6561 14.3103C13.6914 14.4232 13.7761 14.5008 13.882 14.5361L14.6867 14.8114C14.7361 14.8255 14.7855 14.8326 14.8279 14.8326C14.9761 14.8326 15.1173 14.755 15.202 14.635C17.842 10.7526 21.4138 7.52672 25.5361 5.29614C29.7926 2.99496 34.6138 1.77378 39.4773 1.77378C45.3573 1.77378 51.0255 3.51025 55.882 6.78555C60.6185 9.98319 64.2961 14.4514 66.5196 19.6961C66.5832 19.8514 66.7385 19.9573 66.9079 19.9573H67.8679C67.9808 19.9573 68.0867 19.9008 68.1432 19.8091C68.2137 19.7173 68.2279 19.6044 68.1855 19.4985ZM14.8279 14.5926C14.8067 14.5926 14.7855 14.5855 14.7643 14.5785C14.7855 14.5855 14.8067 14.5926 14.8279 14.5926C14.8349 14.5926 14.842 14.5926 14.842 14.5926C14.842 14.5926 14.8349 14.5926 14.8279 14.5926ZM66.7102 19.8302C66.7314 19.8444 66.7526 19.8585 66.7738 19.8655C66.7526 19.8514 66.7314 19.8444 66.7102 19.8302Z" fill="url(#paint0_radial_2702_2268)"/>
<defs>
<radialGradient id="paint0_radial_2702_2268" cx="0" cy="0" r="1" gradientUnits="userSpaceOnUse" gradientTransform="translate(67.2837 19.9217) scale(53.6558 53.6558)">
<stop offset="0.00708621" stop-color="white"/>
<stop offset="0.0300991" stop-color="#CBFFFF"/>
<stop offset="0.0570069" stop-color="#96FFFF"/>
<stop offset="0.0842769" stop-color="#68FFFF"/>
<stop offset="0.1113" stop-color="#43FFFF"/>
<stop offset="0.1382" stop-color="#25FFFF"/>
<stop offset="0.1647" stop-color="#11FFFF"/>
<stop offset="0.1908" stop-color="#04FFFF"/>
<stop offset="0.2159" stop-color="#00FFFF"/>
<stop offset="1" stop-color="#0000FF" stop-opacity="0"/>
</radialGradient>
</defs>
</svg>
